<svg xmlns="http://www.w3.org/2000/svg" viewBox="0 0 64 64"><g data-name="Layer 4" fill="#909090" class="color000000 svgShape"><path d="M54.707,54.707A1,1,0,0,0,54.991,54H55V2a1,1,0,0,0-1-1H10A1,1,0,0,0,9,2V58a5.006,5.006,0,0,0,5,5H54a1,1,0,0,0,.707-1.707L52.414,59a1.415,1.415,0,0,1,0-2ZM41,3h6V9.586L44.707,7.293a1,1,0,0,0-1.414,0L41,9.586ZM17,3V53H14a4.948,4.948,0,0,0-3,1.026V3ZM50.165,57H16v2H50.165A3.381,3.381,0,0,0,51,60.414l.586.586H14a3,3,0,0,1,0-6H51.586L51,55.586A3.381,3.381,0,0,0,50.165,57ZM19,53V3H39v9a1,1,0,0,0,1.707.707L44,9.414l3.293,3.293A1,1,0,0,0,49,12V3h4V53Z" fill="#909090" class="color000000 svgShape"></path><path d="M26,29h1.522q.137.387.306.758l-1.535,1.535a1,1,0,0,0,0,1.414l3,3a1,1,0,0,0,1.414,0l1.535-1.535q.37.169.758.306V36a1,1,0,0,0,1,1h4a1,1,0,0,0,1-1V34.478q.387-.137.758-.306l1.535,1.535a1,1,0,0,0,1.414,0l3-3a1,1,0,0,0,0-1.414l-1.535-1.535q.169-.37.306-.758H46a1,1,0,0,0,1-1V24a1,1,0,0,0-1-1H44.478q-.137-.387-.306-.758l1.535-1.535a1,1,0,0,0,0-1.414l-3-3a1,1,0,0,0-1.414,0l-1.535,1.535q-.37-.169-.758-.306V16a1,1,0,0,0-1-1H34a1,1,0,0,0-1,1v1.522q-.387.137-.758.306l-1.535-1.535a1,1,0,0,0-1.414,0l-3,3a1,1,0,0,0,0,1.414l1.535,1.535q-.169.37-.306.758H26a1,1,0,0,0-1,1v4A1,1,0,0,0,26,29Zm1-4h1.262a1,1,0,0,0,.968-.75,6.946,6.946,0,0,1,.688-1.7,1,1,0,0,0-.162-1.2L28.414,20,30,18.414l1.342,1.342a1,1,0,0,0,1.2.162,6.946,6.946,0,0,1,1.7-.688,1,1,0,0,0,.75-.968V17h2v1.262a1,1,0,0,0,.75.968,6.946,6.946,0,0,1,1.7.688,1,1,0,0,0,1.2-.162L42,18.414,43.586,20l-1.342,1.342a1,1,0,0,0-.162,1.2,6.946,6.946,0,0,1,.688,1.7,1,1,0,0,0,.968.75H45v2H43.738a1,1,0,0,0-.968.75,6.946,6.946,0,0,1-.688,1.7,1,1,0,0,0,.162,1.2L43.586,32,42,33.586l-1.342-1.342a1,1,0,0,0-1.2-.162,6.946,6.946,0,0,1-1.7.688,1,1,0,0,0-.75.968V35H35V33.738a1,1,0,0,0-.75-.968,6.946,6.946,0,0,1-1.7-.688,1,1,0,0,0-1.2.162L30,33.586,28.414,32l1.342-1.342a1,1,0,0,0,.162-1.2,6.946,6.946,0,0,1-.688-1.7,1,1,0,0,0-.968-.75H27Z" fill="#909090" class="color000000 svgShape"></path><path d="M36 31a5 5 0 1 0-5-5A5.006 5.006 0 0 0 36 31zm0-8a3 3 0 1 1-3 3A3 3 0 0 1 36 23zM50 39H22a1 1 0 0 0-1 1v8a1 1 0 0 0 1 1H50a1 1 0 0 0 1-1V40A1 1 0 0 0 50 39zm-1 8H23V41H49z" fill="#909090" class="color000000 svgShape"></path><rect width="22" height="2" x="25" y="43" fill="#909090" class="color000000 svgShape"></rect></g></svg>