<svg xmlns="http://www.w3.org/2000/svg" width="20" height="28" viewBox="0 0 20 28"><path fill="#000" fill-rule="evenodd" d="M278.13 73.226a.538.538 0 0 0-.141-.34l-7.229-7.227a.504.504 0 0 0-.34-.141c-.018-.002-.025-.018-.039-.018h-10.844a.539.539 0 0 0-.537.537V91.938a.54.54 0 0 0 .537.539h18.07a.538.538 0 0 0 .537-.539V73.266c.002-.014-.012-.024-.014-.04zm-7.211-5.888l5.391 5.391h-4.123a1.27 1.27 0 0 1-1.268-1.27v-4.121zm6.15 24.064h-16.992V66.577h9.766v4.881a2.348 2.348 0 0 0 2.344 2.346h4.883v17.598h-.001z" transform="translate(-259 -65)"/></svg>